<?xml version="1.0" encoding="UTF-8"?>
<svg id="Layer_2" data-name="Layer 2" xmlns="http://www.w3.org/2000/svg" viewBox="0 0 28.62 22.65">
  <defs>
    <style>
      .cls-1 {
        fill: #262626;
      }
    </style>
  </defs>
  <g id="Layer_2-2" data-name="Layer 2">
    <polygon class="cls-1" points="20.45 10.29 20.45 8.24 24.53 8.24 24.53 4.12 28.62 4.12 28.62 0 20.45 0 20.45 4.12 16.36 4.12 16.36 8.24 12.27 8.24 12.27 4.12 8.18 4.12 8.18 0 0 0 0 4.12 4.09 4.12 4.09 8.24 8.18 8.24 8.18 10.29 8.18 12.35 8.18 14.41 4.09 14.41 4.09 18.53 0 18.53 0 22.65 8.18 22.65 8.18 18.53 12.27 18.53 12.27 14.41 16.36 14.41 16.36 18.53 20.45 18.53 20.45 22.65 28.62 22.65 28.62 18.53 24.53 18.53 24.53 14.41 20.45 14.41 20.45 12.35 20.45 10.29"/>
  </g>
</svg>