<?xml version="1.0" encoding="UTF-8"?>
<svg id="Layer_2" data-name="Layer 2" xmlns="http://www.w3.org/2000/svg" viewBox="0 0 22 22">
  <defs>
    <style>
      .cls-1 {
        fill: #fb6376;
      }
    </style>
  </defs>
  <g id="Close">
    <path class="cls-1" d="m3,0C2.7,0,2.5.1,2.3.3L.3,2.3c-.4.4-.4,1,0,1.4l7.3,7.3L.3,18.3c-.4.4-.4,1,0,1.4l2,2c.4.4,1,.4,1.4,0l7.3-7.3,7.3,7.3c.4.4,1,.4,1.4,0l2-2c.4-.4.4-1,0-1.4l-7.3-7.3,7.3-7.3c.4-.4.4-1,0-1.4l-2-2c-.4-.4-1-.4-1.4,0l-7.3,7.3L3.7.3C3.5.1,3.2,0,3,0Z"/>
  </g>
</svg>