<?xml version="1.0" encoding="UTF-8"?>
<svg id="Layer_2" data-name="Layer 2" xmlns="http://www.w3.org/2000/svg" viewBox="0 0 24 24">
  <g id="Cancel">
    <path d="m12,0C5.37,0,0,5.37,0,12s5.37,12,12,12,12-5.37,12-12S18.63,0,12,0Zm1.41,12l3.29,3.29c.39.39.39,1.02,0,1.41-.39.39-1.02.39-1.41,0-.15-.15-3.29-3.29-3.29-3.29,0,0-3.14,3.14-3.29,3.29-.39.39-1.02.39-1.41,0-.39-.39-.39-1.02,0-1.41.15-.15,3.29-3.29,3.29-3.29l-3.29-3.29c-.39-.39-.39-1.02,0-1.41.39-.39,1.02-.39,1.41,0,.15.15,3.29,3.29,3.29,3.29,0,0,3.14-3.14,3.29-3.29.39-.39,1.02-.39,1.41,0,.39.39.39,1.02,0,1.41-.15.15-3.29,3.29-3.29,3.29Z"/>
  </g>
</svg>