<?xml version="1.0" encoding="UTF-8"?>
<svg id="Layer_2" data-name="Layer 2" xmlns="http://www.w3.org/2000/svg" viewBox="0 0 60 48">
  <defs>
    <style>
      .cls-1 {
        fill: #262626;
      }
    </style>
  </defs>
  <g id="Layer_2-2" data-name="Layer 2">
    <polygon class="cls-1" points="42.86 21.82 42.86 17.45 51.43 17.45 51.43 8.73 60 8.73 60 0 42.86 0 42.86 8.73 34.29 8.73 34.29 17.45 25.71 17.45 25.71 8.73 17.14 8.73 17.14 0 0 0 0 8.73 8.57 8.73 8.57 17.45 17.14 17.45 17.14 21.82 17.14 26.18 17.14 30.55 8.57 30.55 8.57 39.27 0 39.27 0 48 17.14 48 17.14 39.27 25.71 39.27 25.71 30.55 34.29 30.55 34.29 39.27 42.86 39.27 42.86 48 60 48 60 39.27 51.43 39.27 51.43 30.55 42.86 30.55 42.86 26.18 42.86 21.82"/>
  </g>
</svg>