<?xml version="1.0" encoding="UTF-8"?>
<svg id="Layer_2" data-name="Layer 2" xmlns="http://www.w3.org/2000/svg" viewBox="0 0 48 46.9">
  <defs>
    <style>
      .cls-1 {
        fill: #010101;
      }

      .cls-2 {
        fill: #fff;
      }

      .cls-3 {
        fill: #f2ca50;
      }

      .cls-4 {
        fill: #1d1d1b;
      }
    </style>
  </defs>
  <g id="Layer_1-2" data-name="Layer 1">
    <g>
      <g>
        <circle class="cls-1" cx="24.92" cy="23.83" r="23.08" transform="translate(-9.24 19.17) rotate(-35.94)"/>
        <circle class="cls-2" cx="23.08" cy="23.08" r="23.08" transform="translate(-9.15 17.94) rotate(-35.94)"/>
        <g>
          <g>
            <circle class="cls-3" cx="23.08" cy="23.08" r="20.07"/>
            <path class="cls-1" d="m23.04,44.04c-3.82,0-7.58-1.05-10.93-3.11-4.77-2.93-8.11-7.54-9.41-12.98-1.3-5.44-.4-11.07,2.52-15.84,2.93-4.77,7.54-8.11,12.98-9.41C29.44.01,40.77,6.97,43.46,18.21h0c1.3,5.44.4,11.07-2.52,15.84-2.93,4.77-7.54,8.11-12.98,9.41-1.63.39-3.28.58-4.91.58Zm.07-40.15c-1.5,0-3,.18-4.5.53C8.33,6.88,1.96,17.25,4.42,27.54c1.19,4.98,4.25,9.21,8.62,11.89,4.37,2.68,9.52,3.5,14.5,2.31,10.29-2.46,16.66-12.83,14.2-23.12h0c-1.19-4.98-4.25-9.21-8.62-11.89-3.06-1.88-6.5-2.84-10-2.84Z"/>
          </g>
          <g>
            <ellipse class="cls-1" cx="15.09" cy="17.19" rx="2.23" ry="6.22" transform="translate(-3.58 3.98) rotate(-13.44)"/>
            <ellipse class="cls-1" cx="27.54" cy="14.22" rx="2.23" ry="6.22" transform="translate(-2.55 6.79) rotate(-13.44)"/>
          </g>
          <path class="cls-1" d="m23.41,38.58c-2.55,0-5.07-.7-7.3-2.08-3.19-1.96-5.42-5.04-6.29-8.67l1.72-.41c.76,3.18,2.71,5.87,5.5,7.58,2.78,1.71,6.07,2.23,9.25,1.47,6.56-1.57,10.62-8.18,9.05-14.74l1.72-.41c1.79,7.51-2.85,15.07-10.36,16.87-1.09.26-2.19.39-3.28.39Z"/>
          <g>
            <path class="cls-1" d="m37.2,22.69c-1.09,0-2.19-.63-2.62-1.4-.23-.43-.08-.96.35-1.2.43-.23.96-.08,1.2.35.12.22.85.63,1.34.44.45-.17.97.05,1.14.51.17.46-.05.97-.51,1.14-.29.11-.6.16-.9.16Z"/>
            <path class="cls-1" d="m9.33,29.39c-.45,0-.83-.34-.88-.79-.05-.48.3-.92.79-.97.53-.06.99-.75,1-1,.02-.48.41-.85.88-.85,0,0,.02,0,.03,0,.49.02.87.42.85.91-.04,1.13-1.17,2.55-2.58,2.7-.03,0-.06,0-.09,0Z"/>
          </g>
        </g>
      </g>
      <g>
        <path class="cls-4" d="m15.18,27.6c-.12.08-.21.1-.27.1-.07,0-.08-.01-.1-.03-.1.1.06.19.45.03.03,0,.07.01.05.02-.11.05-.34.18-.42.18-.13,0-.23.03-.34.07-.36.12-.92.34-1.33.5-.07.03-.19.14-.26.15-.07.01-.21.02-.28.02-.05,0-.08-.03-.1-.06h-.13c-.08-.08-.18-.26-.25-.26h-.07c.1-.99,1.11-2.52,1.63-3.18v-.09c.32,0,.48.25.48.53,0,.07-.29.71-.39.9-.07.12-.25.29-.34.42-.05.07-.08.22-.13.3-.06.11-.25.21-.19.37.38-.12.46-.13.5-.14.06-.02.14-.03.21-.03.09,0,.18.03.22.11.03-.03.25-.12.28-.12.08,0,.08.03.16.03.07,0,.37-.1.56-.15,0,.01.03.02.07.03h0c-.18.06-.41.12-.55.21l.06.03c.18-.06.53-.22.73-.27.07.02.15.07.15.08.08-.03.23-.11.24-.07.02.08-.34.25-.63.32Zm-2.06-.38c-.04.1-.11.2-.03.23l.1-.21-.07-.02Zm1.48.59c-.3.06-.93.29-1.32.48v.02s1.41-.46,1.41-.46l-.09-.04Zm-1.15-1.03c-.06,0-.08.07-.08.1h.08v-.1Zm.72.81l.12-.07s-.09-.02-.16.02l.03.05Zm1.09-.33s-.06-.02-.05-.03l.11-.03c.06-.02.06.02.03.03l-.1.03Zm.15.42s-.06,0-.08-.02h0c.33-.15.37-.18.42-.14l-.34.16Zm.21-.41s-.06-.04-.08-.05c.02-.02.22-.08.22-.06,0,.03-.1.08-.14.11Z"/>
        <path class="cls-4" d="m18.55,25.98c-.51.23-1.04.25-1.54.39-.06.1-.14.23-.24.38.23-.02.7-.21.86-.21s.21.06.33.26c-.02.06,0,.12.06.15l-.04.12c-.34.06-1.19.19-1.47.32-.15.06-.28.68-.28.81.18.13.44.07.6.03l.03.06s.09-.03.09-.07c.08-.01.11.12.19.1.37-.1.8-.25,1.09-.34.02,0,.04-.01.05,0,.01.03-.07.07-.12.09l-.38.14s.1.06.14.08c.02,0,0,.02-.01.02-.28.1-.63.19-.95.27.08.04.21.04.32.01.23-.06.54-.17.81-.27.02,0,.06-.02.03.03-.03.06-.08.1-.16.12-.37.14-.84.31-1.19.31-.66,0-1.13-.3-1.11-1.12.01-.42.36-.93.77-1.8-.03-.14-.02-.28.08-.43.28.03.45-.4.64-.4.11,0,.41.08.48.11,0,.12-.02.25-.1.41.1.02.37.05.49.05l.05.11s.08-.03.14-.03.2.06.28.07c.01,0,.02.01.01.02-.23.2-.38.08-.34.25.17-.07.31-.11.47-.18.02-.01.06-.05.06-.02.01.06-.09.09-.15.14Zm-2.39,1.97c-.02.1-.03.18.02.21l.03-.15-.05-.06Zm.09-.32l-.06.21.04.05.08-.27h-.06Zm.01-.03h0s.08-.09.1-.15c-.07,0-.1.03-.11.08v.06Zm.32-.82h.07s.06-.14.06-.14c-.04,0-.11.08-.13.14Zm.26-.38l-.1.16.07-.02.1-.16-.07.02Zm.73,1.7c-.16.12-.36.2-.42.09.26-.06.52-.14.73-.23.02-.01.03,0,.02.02-.07.08-.21.12-.32.11Zm.53-2.28l.02.07.1-.05s-.08-.03-.12-.02Z"/>
        <path class="cls-4" d="m18.76,27.02c.1-.1.42-.95,1.14-1.31.06-.03.03-.08.1-.13.33-.21.53-.29,1.03-.29.36.1.29.34.53.49,0,.08-.05.13-.11.19.05.02.09.06.11.1,0,.03-.03.06-.05.06-.05-.05-.17-.14-.29-.14-.62,0-1.97,1.01-1.88,1.81.4.07,1.01-.05,1.15-.12.07-.03.15-.12.2-.2.15-.23.36-.5.54-.68.02.02.05.04.08.06-.05.05-.11.16-.1.2l.14-.17c.12.06.24.1.26.32.14,0-.03.27.02.33-.4.41-.54.51-.63.58-.05.15-.12.35-.2.55l.02.04c.09-.17.15-.34.21-.5l.06-.03c-.15.36-.29.82-.48,1.16-.05.09.02.13-.03.23-.05.1-.1.25-.21.25h-.1v-.07c-.24.05-.37-.09-.41-.25l.14-.25c-.09.02-.13.1-.16.18h-.1c.15-.31.25-.56.36-.8.09-.2.15-.06.15-.37l-.1.03c-.08-.1-.27-.03-.41.07-.48,0-.73-.09-.94-.5h-.07c-.11-.28-.05-.53.04-.77l-.05-.07Zm.53.54c-.05.05-.07.1-.07.14,0,.03.02.06.06.07v-.21Zm2.07-.57l-.11.15c.08-.01.15-.07.2-.11-.03-.06-.06-.08-.08-.04Z"/>
        <path class="cls-4" d="m22.09,27.02c.1-.1.42-.95,1.14-1.31.06-.03.03-.08.1-.13.33-.21.53-.29,1.03-.29.36.1.29.34.53.49,0,.08-.05.13-.11.19.05.02.09.06.11.1,0,.03-.03.06-.05.06-.05-.05-.17-.14-.29-.14-.62,0-1.97,1.01-1.88,1.81.4.07,1.01-.05,1.15-.12.07-.03.15-.12.2-.2.15-.23.36-.5.54-.68.02.02.05.04.08.06-.05.05-.11.16-.1.2l.14-.17c.12.06.24.1.26.32.14,0-.03.27.02.33-.4.41-.54.51-.63.58-.05.15-.12.35-.2.55l.02.04c.09-.17.15-.34.21-.5l.06-.03c-.15.36-.29.82-.48,1.16-.05.09.02.13-.03.23-.05.1-.1.25-.21.25h-.1v-.07c-.24.05-.37-.09-.41-.25l.14-.25c-.09.02-.13.1-.16.18h-.1c.15-.31.25-.56.36-.8.09-.2.15-.06.15-.37l-.1.03c-.08-.1-.27-.03-.41.07-.48,0-.73-.09-.94-.5h-.07c-.11-.28-.05-.53.04-.77l-.05-.07Zm.53.54c-.05.05-.07.1-.07.14,0,.03.02.06.06.07v-.21Zm2.07-.57l-.11.15c.08-.01.15-.07.2-.11-.03-.06-.06-.08-.08-.04Z"/>
        <path class="cls-4" d="m29.27,25.53c.37-.08.79-.17,1.05-.2.24.06.44.16.51.37-.1.08-.05.23,0,.32-.03.02-.06.03-.09.04v-.03s-.07-.02-.09-.02c-.02,0-.04.02-.04.04,0,.02,0,.03.01.05-.34.07-.84.02-1.31.23h-.08v-.06c-.05,0-.09.02-.12.07-.19.02-.25.1-.37.45-.02.05-.08.12-.12.15l.05.03c-.03.12-.11.34-.17.34-.06,0,0-.12-.04-.11-.06.01-.07.14-.1.23.03.07.03.12.03.16-.03.07-.06.2-.1.2-.06,0-.02-.11-.05-.15-.05.11-.09.21-.13.31l.05.03c.03-.05.06-.07.11-.06-.11.29-.2.59-.27.84-.14.01-.27,0-.37-.03l.02-.06c-.15-.05-.14-.24-.16-.46-.02-.03-.05-.08-.05-.12,0-.14.32-.98.6-1.62h-.44c-.25,0-.27.08-.45.03-.08-.13-.19-.38-.19-.55,0-.07.02-.13.08-.19.22.02.75.05,1.09-.02.57-.12.32-.66.85-.66l.24.49Zm-.71,1.47l-.06.1.03.04.05-.1-.02-.04Z"/>
        <path class="cls-4" d="m32.12,26.05h-.06c-.15.21-.24.61-.5.75l.02.07-.22.12c-.22.32-.32.71-.44,1.03-.02.05-.09.14-.02.16.02,0,.06-.11.06-.13.13-.29.23-.73.43-.97.08-.03.02.04.01.06-.2.33-.29.72-.46,1.11-.11.27-.15.51-.12.62-.1-.03-.19-.07-.28-.12v-.18s-.06.07-.06.14c-.13-.1-.24-.23-.31-.42,0-1.02,1.05-2.41,1.46-3.15.03-.05.11-.08.17-.08.06,0,.11.02.18.04v.14c.11.05.2.18.2.3,0,.15-.02.36-.05.53Zm-1.32,2.26l-.06.15s.01.07.05.02l.08-.2c-.08-.08-.06.01-.06.03Z"/>
        <path class="cls-4" d="m35.14,27.6c-.12.08-.21.1-.27.1-.07,0-.08-.01-.1-.03-.1.1.06.19.45.03.03,0,.07.01.05.02-.11.05-.34.18-.42.18-.13,0-.23.03-.34.07-.36.12-.92.34-1.33.5-.07.03-.19.14-.26.15-.07.01-.21.02-.28.02-.05,0-.08-.03-.1-.06h-.13c-.08-.08-.18-.26-.25-.26h-.07c.1-.99,1.11-2.52,1.63-3.18v-.09c.32,0,.48.25.48.53,0,.07-.29.71-.39.9-.07.12-.25.29-.34.42-.05.07-.08.22-.13.3-.06.11-.25.21-.19.37.38-.12.46-.13.5-.14.06-.02.14-.03.21-.03.09,0,.18.03.22.11.03-.03.25-.12.28-.12.08,0,.08.03.16.03.07,0,.37-.1.56-.15,0,.01.03.02.07.03h0c-.18.06-.41.12-.55.21l.06.03c.18-.06.53-.22.73-.27.07.02.15.07.15.08.08-.03.23-.11.24-.07.02.08-.34.25-.63.32Zm-2.06-.38c-.04.1-.11.2-.03.23l.1-.21-.07-.02Zm1.48.59c-.3.06-.93.29-1.32.48v.02s1.41-.46,1.41-.46l-.09-.04Zm-1.15-1.03c-.06,0-.08.07-.08.1h.08v-.1Zm.72.81l.12-.07s-.09-.02-.16.02l.03.05Zm1.09-.33s-.06-.02-.05-.03l.11-.03c.06-.02.06.02.03.03l-.1.03Zm.15.42s-.06,0-.08-.02h0c.33-.15.37-.18.42-.14l-.34.16Zm.21-.41s-.06-.04-.08-.05c.02-.02.22-.08.22-.06,0,.03-.1.08-.14.11Z"/>
      </g>
    </g>
  </g>
</svg>